inDegrees=no
num_controls=7
num_derivatives=13
num_iterations=106
num_multipliers=7
num_parameters=0
num_slacks=7
num_states=26
objective=0.430999
objective_accelerations=0.051428
objective_balance=0.006957
objective_effort=0.031798
objective_height=0.339669
objective_ligament=0.001147
solver_duration=1388.366281
status=Solve_Succeeded
success=true
DataType=double
version=3
OpenSimVersion=4.5
endheader
time	/jointset/ground_pelvis/pelvis_tilt/value	/jointset/ground_pelvis/pelvis_tx/value	/jointset/ground_pelvis/pelvis_ty/value	/jointset/hip_l/hip_flexion_l/value	/jointset/hip_l/hip_adduction_l/value	/jointset/hip_l/hip_rotation_l/value	/jointset/back/lumbar_extension/value	/jointset/patellofemoral_l/patellar_flexion_l/value	/jointset/knee_l/knee_flexion_l/value	/jointset/knee_l/knee_adduction_l/value	/jointset/knee_l/knee_rotation_l/value	/jointset/ankle_l/ankle_angle_l/value	/jointset/subtalar_l/subtalar_angle_l/value	/jointset/ground_pelvis/pelvis_tilt/speed	/jointset/ground_pelvis/pelvis_tx/speed	/jointset/ground_pelvis/pelvis_ty/speed	/jointset/hip_l/hip_flexion_l/speed	/jointset/hip_l/hip_adduction_l/speed	/jointset/hip_l/hip_rotation_l/speed	/jointset/back/lumbar_extension/speed	/jointset/patellofemoral_l/patellar_flexion_l/speed	/jointset/knee_l/knee_flexion_l/speed	/jointset/knee_l/knee_adduction_l/speed	/jointset/knee_l/knee_rotation_l/speed	/jointset/ankle_l/ankle_angle_l/speed	/jointset/subtalar_l/subtalar_angle_l/speed	/forceset/tau_hip_flexion_l	/forceset/tau_hip_adduction_l	/forceset/tau_hip_rotation_l	/forceset/tau_knee_flexion_l	/forceset/tau_ankle_angle_l	/forceset/tau_subtalar_angle_l	/forceset/tau_lumbar_extension	lambda_cid13_p0	lambda_cid13_p1	lambda_cid13_p2	lambda_cid13_p3	lambda_cid13_p4	lambda_cid13_p5	lambda_cid14_p0	/jointset/ground_pelvis/pelvis_tilt/accel	/jointset/ground_pelvis/pelvis_tx/accel	/jointset/ground_pelvis/pelvis_ty/accel	/jointset/hip_l/hip_flexion_l/accel	/jointset/hip_l/hip_adduction_l/accel	/jointset/hip_l/hip_rotation_l/accel	/jointset/back/lumbar_extension/accel	/jointset/patellofemoral_l/patellar_flexion_l/accel	/jointset/knee_l/knee_flexion_l/accel	/jointset/knee_l/knee_adduction_l/accel	/jointset/knee_l/knee_rotation_l/accel	/jointset/ankle_l/ankle_angle_l/accel	/jointset/subtalar_l/subtalar_angle_l/accel	gamma_cid13_p0	gamma_cid13_p1	gamma_cid13_p2	gamma_cid13_p3	gamma_cid13_p4	gamma_cid13_p5	gamma_cid14_p0
1	-0.4572171269520444	-0.05935331419837597	0.5824903808555204	1.815112633039728	-0.2701386106137915	0.2309615598524676	-0.4363203020441714	1.443975398769683	1.443975398769667	-0.1739999942760581	0.1745092067996495	0.3037848637665866	0.04987676652082317	-0.009640437384679873	0.0003282746023087928	-0.005107927267905964	0.02086137466470665	0.001358277849265066	0.005662527772446609	0.0003882893721794848	0.01319301056366499	0.01319301056366511	-0.0006782747735995106	2.493517658338404e-05	0.002664146558683798	0.002415735374817705	-0.3366101821513752	0.009821963457108847	-0.01153303053996063	-0.3764990034192638	0.06810019002181142	0.007851517459178324	0.299632709670396	-24.95700977933119	3.160807714701485	-3.420329734549734	13.89604731708778	-733.4034678363439	-48.88303096943405	-0.03885361288990906	1.069206983830473	0.02470288621348452	1.888597684051582	-5.964333949125226	-0.6414746149980922	-2.121899396352284	-0.02756860152269681	-5.642991818786371	-5.642991818786371	-0.08264280981265162	0.01926682655780694	-1.045353472266967	-1.091030667325786	2.872988195417141e-09	7.4712661843649e-11	-1.585614375543279e-08	-7.828515626555209e-09	4.826391012803577e-09	-1.301722807496891e-08	2.465593445800883e-09
1.01	-0.4572604873849011	-0.05934885229343416	0.5825335975091565	1.815023766070935	-0.2701562678003791	0.2309100249990937	-0.4363173795164795	1.443825555672138	1.443825555672115	-0.1740076725795386	0.1745095426723398	0.3037594313272351	0.04984758045736212	0.0009697135316780155	0.000561208671767984	0.01374560936590176	-0.03861879486454776	-0.004887381850904426	-0.01596308692283834	0.0001881311081254018	-0.04315440759724028	-0.04315440759724075	-0.0008601617809002511	4.335314691248648e-05	-0.007761423342824479	-0.008252061037071996	-0.3365100459861231	0.009878953017619704	-0.01155360060995351	-0.3762571814032099	0.06789548336252772	0.007891335920937785	0.299521353790107	-25.00621579499915	3.146588532473319	-3.411732837175035	13.96062063208386	-733.1456120338057	-48.88168902733194	-0.03886772116814304	1.057123801214661	0.02215458478156011	1.882882718673375	-5.93746236338928	-0.615768564736914	-2.18193676722129	-0.01745219756254348	-5.629531812732773	-5.62953181273287	0.01361852978934978	-0.006714343620647332	-1.042775817095866	-1.054526269778656	-1.481690201647344e-10	-2.618728155020188e-09	4.581822974956728e-08	2.766044323007512e-09	-8.069694388933968e-09	3.531709882498216e-08	-8.047282301443382e-09
1.02	-0.4571977053774591	-0.05934214786430388	0.5827651797422562	1.814340576625137	-0.2702363129674105	0.230642425146546	-0.4363167011231714	1.443112455393386	1.443112455393356	-0.1740172537178964	0.1745100939995556	0.3036294197752678	0.04971174200145058	0.01158805067508459	0.0007767794400001594	0.03256518862483009	-0.09800312073635167	-0.01111931823949541	-0.03755047206231053	-6.053750455981566e-05	-0.09945842567775277	-0.09945842567775404	-0.00105884174907559	6.802608159600907e-05	-0.01825167596445713	-0.01891474311528552	-0.3364099098208709	0.009935942578130555	-0.01157417067994648	-0.3760153593871559	0.0676907767032451	0.00793115438269724	0.299409997909818	-25.06267959876721	3.134283692423761	-3.404176424009436	14.06818898549109	-732.9860719391289	-48.82668125858078	-0.03887495551103828	1.07084422924021	0.02123022596808135	1.881806209075702	-5.945165217635128	-0.6387299526823916	-2.114253485189683	-0.03727067124892564	-5.634311802707838	-5.634311802707858	-0.0860014019875712	0.02051781942856777	-1.05829001629184	-1.090007800590551	-2.503220492594954e-09	-5.318839860291519e-09	9.984845130501213e-08	1.073179025072869e-08	-1.893434670798916e-08	7.931399567144603e-08	-1.758078031073277e-08
1.03	-0.4570288139571777	-0.05933332239051102	0.5831847214245893	1.813064231020809	-0.2703785331597207	0.2301591415732643	-0.4363183776779471	1.441836596167778	1.441836596167778	-0.1740288192038313	0.1745109239540477	0.3033941448314953	0.04946941987149112	0.02217929946018923	0.0009905207154816079	0.05133084293871949	-0.157228611641708	-0.01731461288574462	-0.05910236937319312	-0.0002446134804610253	-0.1557000394632752	-0.1557000394632749	-0.001245819322551774	9.927809828266454e-05	-0.02881793153993188	-0.02953677570359088	-0.3362549969192608	0.01003724303479687	-0.01165811923023276	-0.3755539644065065	0.06756461104276763	0.00805151609898746	0.2993257912445674	-25.07482024033102	3.067510252270635	-3.374539830889605	14.05711041320116	-732.6542151166807	-48.81717052887228	-0.03890880878951531	1.051626123901073	0.02178067013158119	1.872093285704814	-5.905632504807898	-0.6084357937305068	-2.175097383547084	-0.00445206524923051	-5.617073690835001	-5.617073690834773	0.01620758816508824	-0.005410111268291882	-1.05798260074354	-1.046382317407306	-4.851474967646073e-09	-8.019019635852721e-09	1.538006713099513e-07	1.867071154557391e-08	-2.977827011803738e-08	1.232666330275682e-07	-2.710428466963485e-08
